<svg id="Layer_1" data-name="Layer 1" xmlns="http://www.w3.org/2000/svg" viewBox="0 0 102 225.18"><title>Instagram-milkbottle</title><path d="M22.81,1.94c-.8.9-1.1,4.6-.9,10.3.3,8.3.4,8.8,2.6,9.1,1.9.3,2.2.9,2.2,5.3s-1.5,8-11.9,28.7c-6.5,13-12.4,26.2-13.2,29.2-1.1,4.4-1.4,18-1.4,68.7,0,62.3,0,63.2,2.1,66,4.6,6.3,4.8,6.3,48.9,6.3s44.3,0,48.9-6.3c2.1-2.8,2.1-3.7,2.1-66,0-50.7-.3-64.3-1.4-68.7-.8-3-6.7-16.2-13.2-29.2-10.4-20.7-11.9-24.4-11.9-28.7s.3-5,2.3-5.3,2.2-.8,2.5-9.1c.2-5.7-.1-9.4-.9-10.3C77.91-.16,24.51-.16,22.81,1.94ZM73.2,10.56l-.3,3.55H29.52l-.3-3.55-.29-3.45H73.49ZM68.68,27.11c0,5.5.7,7.3,6.9,19.9l7,13.8L77.78,64c-6.1,3.9-10,4-16,.2-8-5.1-14.8-5-22.1.4-4.6,3.4-9.1,3.3-15.1-.6l-4.8-3.1L26.68,47c6.3-12.6,7-14.4,7-19.9v-6h35ZM58.31,70.31c4.2,2.9,5.8,3.3,11.4,3.3s7.1-.4,10.5-2.8c2.2-1.5,4.5-2.7,5.1-2.7,1.7,0,8.2,14,9.3,20.4.7,3.8,1.1,27.3,1.1,65.1,0,58.4,0,59.3-2.1,61.9l-2,2.6H10.81l-2-2.6c-2.1-2.6-2.1-3.5-2.1-61.9,0-37.8.4-61.3,1.1-65.1,1.1-6.4,7.6-20.4,9.3-20.4.6,0,2.9,1.2,5.1,2.7,3.4,2.4,5,2.8,10.5,2.8s7.2-.4,11.4-3.3c2.8-1.7,5.9-3.2,7.1-3.2S55.51,68.61,58.31,70.31Z" transform="translate(-0.21 -0.37)"/><path d="M18.91,80.44c-.7.4-2,2.9-2.7,5.6-1.2,3.9-1.5,13.3-1.5,49.5,0,39.6.2,44.9,1.6,46.1a2.33,2.33,0,0,0,3.2.2c1.5-.9,1.7-5.5,2.2-47.4.3-31.8.9-47.2,1.7-49C25.21,81.34,22.41,78.14,18.91,80.44Z" transform="translate(-0.21 -0.37)"/><g id="_Group_" data-name="&lt;Group&gt;"><path id="_Compound_Path_" data-name="&lt;Compound Path&gt;" d="M34.9,107.11H82.47a8.23,8.23,0,0,1,8.21,8.21v47.57a8.24,8.24,0,0,1-8.21,8.22H34.9a8.25,8.25,0,0,1-8.22-8.22V115.32A8.24,8.24,0,0,1,34.9,107.11ZM70.42,117v6.82a2.89,2.89,0,0,0,2.88,2.88h7.25a2.88,2.88,0,0,0,2.88-2.86V117a2.89,2.89,0,0,0-2.88-2.88H73.3A2.88,2.88,0,0,0,70.42,117Zm13,17H77.79a18.56,18.56,0,0,1,.83,5.51c0,10.66-8.92,19.32-19.92,19.32s-19.92-8.66-19.92-19.32a18.56,18.56,0,0,1,.83-5.51H33.72V161.1a2.54,2.54,0,0,0,2.54,2.54H80.89a2.54,2.54,0,0,0,2.54-2.54Zm-24.72-7.58a12.46,12.46,0,1,0,12.86,12.46A12.66,12.66,0,0,0,58.71,126.41Z" transform="translate(-0.21 -0.37)"/></g></svg>