<?xml version="1.0" standalone="no"?>
<!DOCTYPE svg PUBLIC "-//W3C//DTD SVG 20010904//EN"
 "http://www.w3.org/TR/2001/REC-SVG-20010904/DTD/svg10.dtd">
<svg version="1.0" xmlns="http://www.w3.org/2000/svg"
 width="225.000000pt" height="225.000000pt" viewBox="0 0 225.000000 225.000000"
 preserveAspectRatio="xMidYMid meet">
<metadata>
Created by potrace 1.15, written by Peter Selinger 2001-2017
</metadata>
<g transform="translate(0.000000,225.000000) scale(0.100000,-0.100000)"
fill="#000000" stroke="none">
<path d="M841 2236 c-8 -9 -11 -46 -9 -103 3 -83 4 -88 26 -91 19 -3 22 -9 22
-53 0 -43 -15 -80 -119 -287 -65 -130 -124 -262 -132 -292 -11 -44 -14 -180
-14 -687 0 -623 0 -632 21 -660 46 -63 48 -63 489 -63 441 0 443 0 489 63 21
28 21 37 21 660 0 507 -3 643 -14 687 -8 30 -67 162 -132 292 -104 207 -119
244 -119 287 0 44 3 50 23 53 21 3 22 8 25 91 2 57 -1 94 -9 103 -17 21 -551
21 -568 0z m507 -91 l-3 -36 -220 0 -220 0 -3 36 -3 35 226 0 226 0 -3 -35z
m-48 -165 c0 -55 7 -73 69 -199 l70 -138 -48 -32 c-61 -39 -100 -40 -160 -2
-80 51 -148 50 -221 -4 -46 -34 -91 -33 -151 6 l-48 31 69 139 c63 126 70 144
70 199 l0 60 175 0 175 0 0 -60z m-104 -432 c42 -29 58 -33 114 -33 55 0 71 4
105 28 22 15 45 27 51 27 17 0 82 -140 93 -204 7 -38 11 -273 11 -651 0 -584
0 -593 -21 -619 l-20 -26 -404 0 -404 0 -20 26 c-21 26 -21 35 -21 619 0 378
4 613 11 651 11 64 76 204 93 204 6 0 29 -12 51 -27 34 -24 50 -28 105 -28 56
0 72 4 114 33 28 17 59 32 71 32 12 0 43 -15 71 -32z"/>
<path d="M802 1451 c-7 -4 -20 -29 -27 -56 -12 -39 -15 -133 -15 -495 0 -396
2 -449 16 -461 11 -9 20 -10 32 -2 15 9 17 55 22 474 3 318 9 472 17 490 18
41 -10 73 -45 50z"/>
</g>
</svg>
